<?xml version="1.0" encoding="UTF-8" standalone="no"?><!DOCTYPE svg PUBLIC "-//W3C//DTD SVG 1.1//EN" "http://www.w3.org/Graphics/SVG/1.1/DTD/svg11.dtd"><svg width="100%" height="100%" viewBox="0 0 1558 181" version="1.1" xmlns="http://www.w3.org/2000/svg" xmlns:xlink="http://www.w3.org/1999/xlink" xml:space="preserve" xmlns:serif="http://www.serif.com/" style="fill-rule:evenodd;clip-rule:evenodd;stroke-linejoin:round;stroke-miterlimit:2;"><g><circle cx="1388.69" cy="64.16" r="56.25" style="fill:#0a0a0a;"/><circle cx="1501.19" cy="64.16" r="56.25" style="fill:#1D2526;"/><path d="M1332.44,176.66c-0,-30.858 25.392,-56.25 56.25,-56.25c30.857,0 56.25,25.392 56.25,56.25l-112.501,0Z" style="fill:#1D2526;fill-rule:nonzero;"/><path d="M1444.94,176.66c-0.001,-30.858 25.392,-56.25 56.249,-56.25c30.858,0 56.25,25.392 56.25,56.25l-112.5,0Z" style="fill:#1D2526;fill-rule:nonzero;"/></g><g><path d="M110.4,176.644l-77.283,-120.723l0,120.723l-33.117,-0l-0,-170.164l41.281,0l70.8,112.562l-0,-112.562l33.119,0l0,170.164l-34.8,-0Z" style="fill:#1D2526;fill-rule:nonzero;"/><path d="M292.294,117.603c0,36.241 -26.64,62.641 -61.921,62.641c-35.281,-0 -61.921,-26.4 -61.921,-62.641c-0,-36.481 26.64,-62.642 61.921,-62.642c35.281,0 61.921,26.161 61.921,62.642Zm-31.92,-0c-0,-22.321 -14.4,-33.6 -30,-33.6c-15.6,-0 -30,11.28 -30,33.6c-0,22.08 14.4,33.6 30,33.6c15.6,-0 30,-11.28 30,-33.6Z" style="fill:#1D2526;fill-rule:nonzero;"/><rect x="379.17" y="6.48" width="33.6" height="170.164" style="fill:#1D2526;fill-rule:nonzero;"/><path d="M462.328,137.763c0.72,9.36 7.68,18 21.6,18c10.56,-0 15.6,-5.52 15.6,-11.76c-0,-5.28 -3.6,-9.6 -12.721,-11.52l-15.6,-3.6c-22.8,-5.04 -33.121,-18.72 -33.121,-35.281c0,-21.121 18.72,-38.641 44.161,-38.641c33.6,0 44.881,21.361 46.322,34.081l-26.641,6c-0.96,-6.96 -6,-15.84 -19.441,-15.84c-8.4,-0 -15.121,5.04 -15.121,11.76c0,5.76 4.321,9.361 10.8,10.56l16.8,3.6c23.28,4.8 35.04,18.96 35.04,36.241c0,19.2 -14.88,38.881 -45.841,38.881c-35.52,-0 -47.76,-23.041 -49.2,-36.481l27.363,-6Z" style="fill:#1D2526;fill-rule:nonzero;"/><path d="M665.775,117.603c0,36.241 -26.641,62.641 -61.921,62.641c-35.281,-0 -61.922,-26.4 -61.922,-62.641c0,-36.481 26.641,-62.642 61.922,-62.642c35.28,0 61.921,26.161 61.921,62.642Zm-31.921,-0c0,-22.321 -14.4,-33.6 -30,-33.6c-15.6,-0 -30,11.28 -30,33.6c0,22.08 14.4,33.6 30,33.6c15.6,-0 30.003,-11.28 30.003,-33.6l-0.003,-0Z" style="fill:#1D2526;fill-rule:nonzero;"/><rect x="685.983" y="2.88" width="31.92" height="173.764" style="fill:#1D2526;fill-rule:nonzero;"/><path d="M774.277,108.723l29.041,-4.321c6.721,-0.959 8.881,-4.32 8.881,-8.4c-0,-8.4 -6.481,-15.361 -19.921,-15.361c-13.92,0 -21.6,8.881 -22.561,19.201l-28.319,-6c1.919,-18.481 18.959,-38.881 50.64,-38.881c37.441,-0 51.361,21.12 51.361,44.881l-0,58.08c0.036,6.267 0.517,12.523 1.44,18.721l-29.28,0c-0.721,-3.12 -1.2,-9.6 -1.2,-14.161c-6,9.361 -17.28,17.522 -34.8,17.522c-25.2,-0 -40.561,-17.041 -40.561,-35.522c-0.001,-21.12 15.6,-32.879 35.279,-35.759Zm37.922,20.16l-0,-5.28l-26.641,4.08c-8.16,1.2 -14.64,5.76 -14.64,14.88c0,6.96 5.04,13.681 15.36,13.681c13.44,-0 25.921,-6.481 25.921,-27.361Z" style="fill:#1D2526;fill-rule:nonzero;"/><path d="M909.375,58.561l23.761,0l-0,28.321l-23.761,0l0,49.441c0,10.32 4.8,13.681 13.92,13.681c3.305,0.032 6.604,-0.291 9.841,-0.961l-0,26.4c-2.881,1.2 -8.64,2.879 -18,2.879c-23.041,0 -37.441,-13.68 -37.441,-36.481l0,-54.959l-21.36,0l0,-28.321l6,0c12.48,0 18.24,-8.16 18.24,-18.72l0,-16.56l28.8,-0l0,35.28Z" style="fill:#1D2526;fill-rule:nonzero;"/><path d="M968.983,0c10.796,0 19.681,8.884 19.681,19.681c-0,10.796 -8.885,19.681 -19.681,19.681c-10.8,-0 -19.68,-8.881 -19.68,-19.441c-0.055,-10.858 8.822,-19.844 19.68,-19.921Zm-15.84,176.644l-0,-118.083l31.92,0l-0,118.083l-31.92,-0Z" style="fill:#1D2526;fill-rule:nonzero;"/><path d="M1128.1,117.603c-0.001,36.241 -26.641,62.641 -61.922,62.641c-35.281,-0 -61.921,-26.4 -61.921,-62.641c-0,-36.481 26.64,-62.642 61.921,-62.642c35.281,0 61.921,26.161 61.921,62.642Zm-31.92,-0c-0,-22.321 -14.4,-33.6 -30,-33.6c-15.6,-0 -30,11.28 -30,33.6c-0,22.08 14.4,33.6 30,33.6c15.6,-0 30,-11.28 30,-33.6Z" style="fill:#1D2526;fill-rule:nonzero;"/><path d="M1179.96,176.644l-31.92,-0l0,-118.083l30.961,0l0,14.64c7.2,-12.24 21.361,-17.76 34.08,-17.76c29.282,0 42.722,20.881 42.722,46.8l-0,74.4l-31.921,0l-0,-68.879c-0,-13.2 -6.48,-23.52 -21.84,-23.52c-13.921,0 -22.082,10.8 -22.082,24.481l0,67.921Z" style="fill:#1D2526;fill-rule:nonzero;"/></g></svg>